<svg xmlns="http://www.w3.org/2000/svg" xmlns:xlink="http://www.w3.org/1999/xlink" viewBox="0 0 1080 1920"><defs><style>.cls-1{fill:none;}.cls-2{isolation:isolate;}.cls-3{clip-path:url(#clip-path);}.cls-4{fill:url(#linear-gradient);}.cls-5{opacity:0.22;}.cls-6{fill:url(#linear-gradient-2);}.cls-7{fill:#a6a4a4;mix-blend-mode:overlay;}.cls-8{clip-path:url(#clip-path-2);}.cls-9{mix-blend-mode:color-burn;}.cls-10{fill:url(#linear-gradient-3);}.cls-11{fill:url(#linear-gradient-4);}.cls-12{fill:url(#linear-gradient-5);}.cls-13{fill:url(#linear-gradient-6);}.cls-14{fill:url(#linear-gradient-7);}.cls-15{fill:url(#linear-gradient-8);}.cls-16{fill:url(#linear-gradient-9);}.cls-17{fill:url(#linear-gradient-10);}.cls-18{fill:url(#linear-gradient-11);}.cls-19{fill:url(#linear-gradient-12);}.cls-20{fill:url(#linear-gradient-13);}.cls-21{fill:url(#linear-gradient-14);}.cls-22{fill:url(#linear-gradient-15);}.cls-23{fill:url(#linear-gradient-16);}.cls-24{fill:url(#linear-gradient-17);}.cls-25{fill:url(#linear-gradient-18);}.cls-26{fill:url(#linear-gradient-19);}.cls-27{fill:url(#linear-gradient-20);}.cls-28{fill:url(#linear-gradient-21);}.cls-29{fill:url(#linear-gradient-22);}.cls-30{fill:url(#linear-gradient-23);}.cls-31{fill:url(#linear-gradient-24);}.cls-32{fill:url(#linear-gradient-25);}.cls-33{fill:url(#linear-gradient-26);}.cls-34{fill:url(#linear-gradient-27);}.cls-35{fill:url(#linear-gradient-28);}.cls-36{fill:url(#linear-gradient-29);}.cls-37{fill:url(#linear-gradient-30);}.cls-38{fill:url(#linear-gradient-31);}.cls-39{fill:url(#linear-gradient-32);}.cls-40{fill:url(#linear-gradient-33);}.cls-41{fill:url(#linear-gradient-34);}.cls-42{fill:url(#linear-gradient-35);}.cls-43{fill:url(#linear-gradient-36);}.cls-44{fill:url(#linear-gradient-37);}.cls-45{fill:url(#linear-gradient-38);}.cls-46{fill:url(#linear-gradient-39);}.cls-47{fill:url(#linear-gradient-40);}.cls-48{fill:url(#linear-gradient-41);}.cls-49{fill:url(#linear-gradient-42);}.cls-50{mix-blend-mode:color-dodge;fill:url(#radial-gradient);}.cls-51,.cls-52,.cls-53,.cls-54,.cls-55,.cls-56,.cls-57,.cls-58,.cls-59,.cls-60,.cls-61,.cls-62,.cls-63,.cls-64,.cls-65,.cls-66,.cls-67,.cls-68,.cls-69,.cls-70,.cls-71,.cls-72,.cls-73,.cls-74{mix-blend-mode:screen;}.cls-51{fill:url(#radial-gradient-2);}.cls-52{fill:url(#radial-gradient-3);}.cls-53{fill:url(#radial-gradient-4);}.cls-54{fill:url(#radial-gradient-5);}.cls-55{fill:url(#radial-gradient-6);}.cls-56{fill:url(#radial-gradient-7);}.cls-57{fill:url(#radial-gradient-8);}.cls-58{fill:url(#radial-gradient-9);}.cls-59{fill:url(#radial-gradient-10);}.cls-60{fill:url(#radial-gradient-11);}.cls-61{fill:url(#radial-gradient-12);}.cls-62{fill:url(#radial-gradient-13);}.cls-63{fill:url(#radial-gradient-14);}.cls-64{fill:url(#radial-gradient-15);}.cls-65{fill:url(#radial-gradient-16);}.cls-66{fill:url(#radial-gradient-17);}.cls-67{fill:url(#radial-gradient-18);}.cls-68{fill:url(#radial-gradient-19);}.cls-69{fill:url(#radial-gradient-20);}.cls-70{fill:url(#radial-gradient-21);}.cls-71{fill:url(#radial-gradient-22);}.cls-72{fill:url(#radial-gradient-23);}.cls-73{fill:url(#radial-gradient-24);}.cls-74{fill:url(#radial-gradient-25);}.cls-75{fill:#fff;}.cls-76{fill:#25af61;}.cls-77{fill:#3798d3;}.cls-78{fill:#e94c3d;}.cls-79{fill:#f0c514;}</style><clipPath id="clip-path"><rect class="cls-1" x="-7.31" y="-1" width="1091.31" height="1974"/></clipPath><linearGradient id="linear-gradient" x1="-996.21" y1="44.46" x2="2127.67" y2="1848.03" gradientUnits="userSpaceOnUse"><stop offset="0" stop-color="#2f2e7a"/><stop offset="0.64" stop-color="#24265d"/><stop offset="1" stop-color="#25285e"/></linearGradient><linearGradient id="linear-gradient-2" x1="-347.6" y1="2240.31" x2="-347.6" y2="-29.95" gradientTransform="matrix(-1, 0, 0, 1, 190.74, 0)" gradientUnits="userSpaceOnUse"><stop offset="0" stop-color="#272767"/><stop offset="0.14" stop-color="#25306f"/><stop offset="0.38" stop-color="#204986"/><stop offset="0.68" stop-color="#1772ab"/><stop offset="1" stop-color="#0da4d8"/></linearGradient><clipPath id="clip-path-2"><rect class="cls-1" x="-1684.31" y="-274.07" width="4445.31" height="2222.65"/></clipPath><linearGradient id="linear-gradient-3" x1="-926.3" y1="2415.06" x2="-924.1" y2="2412.86" gradientTransform="translate(157171.8 -699117.6) scale(169 290)" gradientUnits="userSpaceOnUse"><stop offset="0" stop-color="#b0e1f3"/><stop offset="1" stop-color="#84d3ed"/></linearGradient><linearGradient id="linear-gradient-4" x1="-915.4" y1="2438.01" x2="-912.94" y2="2435.55" gradientTransform="translate(293498.8 -257551.6) scale(321 106)" gradientUnits="userSpaceOnUse"><stop offset="0" stop-color="#f3fafd"/><stop offset="1" stop-color="#e6f5fb"/></linearGradient><linearGradient id="linear-gradient-5" x1="-914.94" y1="2420.52" x2="-912.55" y2="2418.13" gradientTransform="translate(289008.8 -495322.6) scale(316 205)" gradientUnits="userSpaceOnUse"><stop offset="0" stop-color="#eef8fd"/><stop offset="1" stop-color="#e6f5fb"/></linearGradient><linearGradient id="linear-gradient-6" x1="-915.39" y1="2412.39" x2="-912.76" y2="2409.76" gradientTransform="translate(293498.8 -927117.6) scale(321 385)" gradientUnits="userSpaceOnUse"><stop offset="0" stop-color="#f5fbfd"/><stop offset="1" stop-color="#eaf6fa"/></linearGradient><linearGradient id="linear-gradient-7" x1="-924.72" y1="2425.23" x2="-922.42" y2="2422.93" gradientTransform="translate(171487.8 -427627.6) scale(185 177)" gradientUnits="userSpaceOnUse"><stop offset="0" stop-color="#cbeaf6"/><stop offset="1" stop-color="#bfe6f4"/></linearGradient><linearGradient id="linear-gradient-8" x1="-924.44" y1="2412.34" x2="-922.03" y2="2409.93" gradientTransform="translate(171487.8 -927117.6) scale(185 385)" gradientUnits="userSpaceOnUse"><stop offset="0" stop-color="#c6e9f5"/><stop offset="1" stop-color="#bfe6f4"/></linearGradient><linearGradient id="linear-gradient-9" x1="-910.45" y1="2419.29" x2="-907.99" y2="2416.83" gradientTransform="translate(354169.8 -545453.6) scale(388 226)" gradientUnits="userSpaceOnUse"><stop offset="0" stop-color="#84d3ed"/><stop offset="1" stop-color="#99d9f0"/></linearGradient><linearGradient id="linear-gradient-10" x1="-911.59" y1="2424.44" x2="-909.24" y2="2422.09" gradientTransform="translate(307473.8 -420756.6) scale(336 174)" gradientUnits="userSpaceOnUse"><stop offset="0" stop-color="#84d3ed"/><stop offset="1" stop-color="#a0dbf0"/></linearGradient><linearGradient id="linear-gradient-11" x1="-907.27" y1="2413.06" x2="-904.7" y2="2410.49" gradientTransform="translate(502376.8 -938827.6) scale(553 390)" gradientUnits="userSpaceOnUse"><stop offset="0" stop-color="#a8def0"/><stop offset="1" stop-color="#9adaf0"/></linearGradient><linearGradient id="linear-gradient-12" x1="-909.34" y1="2409.85" x2="-906.73" y2="2407.24" gradientTransform="translate(387432.8 -1310982.6) scale(425 545)" gradientUnits="userSpaceOnUse"><stop offset="0" stop-color="#96d8ef"/><stop offset="1" stop-color="#bfe6f4"/></linearGradient><linearGradient id="linear-gradient-13" x1="-948.66" y1="2419.61" x2="-946.33" y2="2417.28" gradientTransform="translate(90611.8 -495322.6) scale(95 205)" gradientUnits="userSpaceOnUse"><stop offset="0" stop-color="#d5eef6"/><stop offset="1" stop-color="#c1e7f4"/></linearGradient><linearGradient id="linear-gradient-14" x1="-926.08" y1="2418.96" x2="-923.84" y2="2416.73" gradientTransform="translate(157171.8 -543278.6) scale(169 225)" gradientUnits="userSpaceOnUse"><stop offset="0" stop-color="#b6e3f2"/><stop offset="1" stop-color="#96d8ef"/></linearGradient><linearGradient id="linear-gradient-15" x1="-921.69" y1="2418.33" x2="-919.31" y2="2415.95" gradientTransform="translate(184202.8 -543278.6) scale(199 225)" gradientUnits="userSpaceOnUse"><stop offset="0" stop-color="#79cfec"/><stop offset="1" stop-color="#8fd6ee"/></linearGradient><linearGradient id="linear-gradient-16" x1="-919.07" y1="2427.05" x2="-916.39" y2="2424.37" gradientTransform="translate(209374.8 -363306.6) scale(227 150)" gradientUnits="userSpaceOnUse"><stop offset="0" stop-color="#b6e3f2"/><stop offset="1" stop-color="#b7e3f3"/></linearGradient><linearGradient id="linear-gradient-17" x1="-911.21" y1="2410.56" x2="-908.79" y2="2408.14" gradientTransform="translate(421708.8 -1181445.6) scale(464 491)" gradientUnits="userSpaceOnUse"><stop offset="0" stop-color="#d2edf5"/><stop offset="1" stop-color="#f5fbfd"/></linearGradient><linearGradient id="linear-gradient-18" x1="-919.56" y1="2409.91" x2="-917.09" y2="2407.45" gradientTransform="translate(232366.8 -1181445.6) scale(253 491)" gradientUnits="userSpaceOnUse"><stop offset="0" stop-color="#dbf0f8"/><stop offset="1" stop-color="#e6f5fb"/></linearGradient><linearGradient id="linear-gradient-19" x1="-917.38" y1="2413.92" x2="-914.88" y2="2411.42" gradientTransform="translate(258442.8 -723451.6) scale(282 300)" gradientUnits="userSpaceOnUse"><stop offset="0" stop-color="#eef8fd"/><stop offset="1" stop-color="#e7f5fb"/></linearGradient><linearGradient id="linear-gradient-20" x1="-978.47" y1="2411.39" x2="-976.09" y2="2409.01" gradientTransform="translate(62539.8 -817390.6) scale(64 339)" gradientUnits="userSpaceOnUse"><stop offset="0" stop-color="#dff2f9"/><stop offset="1" stop-color="#d9f0f7"/></linearGradient><linearGradient id="linear-gradient-21" x1="-913.55" y1="2411.79" x2="-910.91" y2="2409.15" gradientTransform="translate(312461.8 -817390.6) scale(342 339)" gradientUnits="userSpaceOnUse"><stop offset="0" stop-color="#e6f5fb"/><stop offset="1" stop-color="#caeaf5"/></linearGradient><linearGradient id="linear-gradient-22" x1="-913.91" y1="2418.32" x2="-911.35" y2="2415.76" gradientTransform="translate(312461.8 -521938.6) scale(342 216)" gradientUnits="userSpaceOnUse"><stop offset="0" stop-color="#e3f4fb"/><stop offset="1" stop-color="#caeaf5"/></linearGradient><linearGradient id="linear-gradient-23" x1="-932.53" y1="2415.73" x2="-930.11" y2="2413.31" gradientTransform="translate(130167.8 -627538.6) scale(139 260)" gradientUnits="userSpaceOnUse"><stop offset="0" stop-color="#cbeaf6"/><stop offset="1" stop-color="#a9def1"/></linearGradient><linearGradient id="linear-gradient-24" x1="-918.69" y1="2415.59" x2="-916.15" y2="2413.06" gradientTransform="translate(209374.8 -627538.6) scale(227 260)" gradientUnits="userSpaceOnUse"><stop offset="0" stop-color="#9adaf0"/><stop offset="1" stop-color="#94d8ef"/></linearGradient><linearGradient id="linear-gradient-25" x1="-916.21" y1="2412.34" x2="-913.61" y2="2409.73" gradientTransform="translate(239085.8 -812443.6) scale(260 337)" gradientUnits="userSpaceOnUse"><stop offset="0" stop-color="#94d8ef"/><stop offset="1" stop-color="#98d9ee"/></linearGradient><linearGradient id="linear-gradient-26" x1="-917.35" y1="2411.12" x2="-913.85" y2="2407.62" gradientTransform="translate(-175555.48 196398.67) rotate(180) scale(193 81)" gradientUnits="userSpaceOnUse"><stop offset="0" stop-color="#bee6f3"/><stop offset="1" stop-color="#caeaf5"/></linearGradient><linearGradient id="linear-gradient-27" x1="-907.5" y1="2404.71" x2="-903.99" y2="2401.2" gradientTransform="translate(-291719.48 837377.67) rotate(180) scale(322 348)" gradientUnits="userSpaceOnUse"><stop offset="0" stop-color="#c2e7f4"/><stop offset="1" stop-color="#45bde6"/></linearGradient><linearGradient id="linear-gradient-28" x1="-923.48" y1="2412.29" x2="-919.82" y2="2408.64" gradientTransform="translate(-128815.48 213117.67) rotate(180) scale(141 88)" gradientUnits="userSpaceOnUse"><stop offset="0" stop-color="#c2e7f4"/><stop offset="1" stop-color="#d5eef6"/></linearGradient><linearGradient id="linear-gradient-29" x1="-917.62" y1="2408.11" x2="-913.91" y2="2404.41" gradientTransform="translate(-168371.48 357198.67) rotate(180) scale(185 148)" gradientUnits="userSpaceOnUse"><stop offset="0" stop-color="#c5e8f5"/><stop offset="1" stop-color="#ddf1f9"/></linearGradient><linearGradient id="linear-gradient-30" x1="-949.96" y1="2405.53" x2="-946.45" y2="2402.02" gradientTransform="translate(-59669.48 815450.67) rotate(180) scale(64 339)" xlink:href="#linear-gradient-20"/><linearGradient id="linear-gradient-31" x1="-906.94" y1="2407.39" x2="-903.12" y2="2403.57" gradientTransform="translate(-331231.48 407598.67) rotate(180) scale(366 169)" gradientUnits="userSpaceOnUse"><stop offset="0" stop-color="#d9f0f7"/><stop offset="1" stop-color="#b9e4f4"/></linearGradient><linearGradient id="linear-gradient-32" x1="-913.73" y1="2403.03" x2="-910.04" y2="2399.34" gradientTransform="translate(-182901.48 926383.67) rotate(180) scale(201 385)" gradientUnits="userSpaceOnUse"><stop offset="0" stop-color="#98d9ee"/><stop offset="1" stop-color="#84d3ed"/></linearGradient><linearGradient id="linear-gradient-33" x1="-912.85" y1="2403.98" x2="-909.05" y2="2400.18" gradientTransform="translate(-182901.48 748888.67) rotate(180) scale(201 311)" gradientUnits="userSpaceOnUse"><stop offset="0" stop-color="#198eb5"/><stop offset="1" stop-color="#4abfe6"/></linearGradient><linearGradient id="linear-gradient-34" x1="-913.73" y1="2402.84" x2="-909.88" y2="2398.99" gradientTransform="translate(-146216.48 748888.67) rotate(180) scale(160 311)" xlink:href="#linear-gradient-32"/><linearGradient id="linear-gradient-35" x1="-908.17" y1="2406.02" x2="-904.27" y2="2402.12" gradientTransform="translate(-309591.48 815450.67) rotate(180) scale(342 339)" xlink:href="#linear-gradient-21"/><linearGradient id="linear-gradient-36" x1="-908.6" y1="2409.9" x2="-904.82" y2="2406.12" gradientTransform="translate(-309591.48 519998.67) rotate(180) scale(342 216)" xlink:href="#linear-gradient-22"/><linearGradient id="linear-gradient-37" x1="-907.11" y1="2406.59" x2="-903.72" y2="2403.19" gradientTransform="translate(-331231.48 606650.67) rotate(180) scale(366 252)" gradientUnits="userSpaceOnUse"><stop offset="0" stop-color="#c5e8f5"/><stop offset="1" stop-color="#94d8ef"/></linearGradient><linearGradient id="linear-gradient-38" x1="-917.3" y1="2408.93" x2="-913.73" y2="2405.36" gradientTransform="translate(-127297.48 625598.67) rotate(180) scale(139 260)" xlink:href="#linear-gradient-23"/><linearGradient id="linear-gradient-39" x1="-913.27" y1="2403.94" x2="-909.27" y2="2399.95" gradientTransform="translate(-232129.48 652638.67) rotate(180) scale(256 271)" xlink:href="#linear-gradient-32"/><linearGradient id="linear-gradient-40" x1="-913.22" y1="2403.64" x2="-909.45" y2="2399.88" gradientTransform="translate(-232129.48 926383.67) rotate(180) scale(256 385)" xlink:href="#linear-gradient-32"/><linearGradient id="linear-gradient-41" x1="-915.51" y1="2409.44" x2="-912.15" y2="2406.09" gradientTransform="translate(-207787.48 340317.67) rotate(180) scale(229 141)" xlink:href="#linear-gradient-16"/><linearGradient id="linear-gradient-42" x1="-916.28" y1="2406.84" x2="-912.3" y2="2402.87" gradientTransform="translate(-207787.48 765029.67) rotate(180) scale(229 318)" gradientUnits="userSpaceOnUse"><stop offset="0" stop-color="#d5eef6"/><stop offset="1" stop-color="#bee6f3"/></linearGradient><radialGradient id="radial-gradient" cx="-5.26" cy="-988.64" r="260.68" gradientTransform="matrix(-8.6, 0, 0, 2.74, 483.17, 2198.33)" gradientUnits="userSpaceOnUse"><stop offset="0" stop-color="#3680c3"/><stop offset="0.27" stop-color="#275b8b"/><stop offset="0.77" stop-color="#0b1a28"/><stop offset="0.99"/></radialGradient><radialGradient id="radial-gradient-2" cx="124.68" cy="1257.15" r="6.75" gradientTransform="matrix(-1, 0, 0, 1, 190.74, 0)" gradientUnits="userSpaceOnUse"><stop offset="0.45" stop-color="#a2dcf0"/><stop offset="0.52" stop-color="#7c1316"/><stop offset="1"/></radialGradient><radialGradient id="radial-gradient-3" cx="-20.77" cy="1329.28" r="6.39" xlink:href="#radial-gradient-2"/><radialGradient id="radial-gradient-4" cx="-145.25" cy="1561.42" r="9.58" xlink:href="#radial-gradient-2"/><radialGradient id="radial-gradient-5" cx="-310.73" cy="1539.32" r="13.78" xlink:href="#radial-gradient-2"/><radialGradient id="radial-gradient-6" cx="-519.54" cy="1297.25" r="14.01" xlink:href="#radial-gradient-2"/><radialGradient id="radial-gradient-7" cx="-602.12" cy="1599.15" r="13.83" xlink:href="#radial-gradient-2"/><radialGradient id="radial-gradient-8" cx="-862.01" cy="1580.27" r="9.06" xlink:href="#radial-gradient-2"/><radialGradient id="radial-gradient-9" cx="-888.17" cy="1359.76" r="16.77" xlink:href="#radial-gradient-2"/><radialGradient id="radial-gradient-10" cx="-743.97" cy="1229.8" r="8.13" xlink:href="#radial-gradient-2"/><radialGradient id="radial-gradient-11" cx="-826.19" cy="1043.52" r="9.5" xlink:href="#radial-gradient-2"/><radialGradient id="radial-gradient-12" cx="127.4" cy="1460.86" r="11.62" xlink:href="#radial-gradient-2"/><radialGradient id="radial-gradient-13" cx="58.47" cy="1482.28" r="8.68" xlink:href="#radial-gradient-2"/><radialGradient id="radial-gradient-14" cx="-96.07" cy="1498.61" r="13.8" xlink:href="#radial-gradient-2"/><radialGradient id="radial-gradient-15" cx="-165.38" cy="1541.05" r="5.49" xlink:href="#radial-gradient-2"/><radialGradient id="radial-gradient-16" cx="-398.11" cy="1530" r="6.31" gradientTransform="matrix(-0.39, -0.92, -0.92, 0.39, 1846.75, 572.35)" xlink:href="#radial-gradient-2"/><radialGradient id="radial-gradient-17" cx="-471.99" cy="1654.72" r="16.25" xlink:href="#radial-gradient-2"/><radialGradient id="radial-gradient-18" cx="-517.28" cy="1646.78" r="13.04" gradientTransform="matrix(-0.99, -0.16, -0.16, 0.99, 458.63, -61.22)" xlink:href="#radial-gradient-2"/><radialGradient id="radial-gradient-19" cx="-590.51" cy="1765.45" r="13.2" xlink:href="#radial-gradient-2"/><radialGradient id="radial-gradient-20" cx="-647.81" cy="1752.95" r="7.41" gradientTransform="matrix(-0.39, -0.92, -0.92, 0.39, 2204.3, 477.32)" xlink:href="#radial-gradient-2"/><radialGradient id="radial-gradient-21" cx="-687.01" cy="1756.72" r="5.85" xlink:href="#radial-gradient-2"/><radialGradient id="radial-gradient-22" cx="-723.81" cy="1447.3" r="15.19" xlink:href="#radial-gradient-2"/><radialGradient id="radial-gradient-23" cx="-584.58" cy="1525.67" r="12.37" xlink:href="#radial-gradient-2"/><radialGradient id="radial-gradient-24" cx="-650" cy="1398.52" r="6.02" xlink:href="#radial-gradient-2"/><radialGradient id="radial-gradient-25" cx="-761.43" cy="1383.36" r="7.4" xlink:href="#radial-gradient-2"/></defs><title>splashapp</title><g class="cls-2"><g id="Layer_1" data-name="Layer 1"><g class="cls-3"><rect class="cls-4" x="-937.91" y="-56.51" width="3007.29" height="2005.51"/><g class="cls-5"><rect class="cls-6" x="-1684.31" y="-274.07" width="4445.31" height="2222.65"/><path class="cls-7" d="M-1678.31,355.25l955.09,735.85-961.09-471.8v4.3L-722,1096a16,16,0,0,0-1,5.33,16.08,16.08,0,0,0,4.45,11.09l-243.23,292.13-453,544.05h5l105.9-127.19,588.24-706.51a16.07,16.07,0,0,0,8.79,2.62A16.17,16.17,0,0,0-691.07,1105l447.4,48.5,583.81,63.29a16.09,16.09,0,0,0,.95,5.13l-1482,726.7h8.77L342.75,1225.37a16.13,16.13,0,0,0,11.74,7.21l2.41,389.11,2,326.89h3.86l-4.43-716a16.13,16.13,0,0,0,13.06-10.21l1935,486.14a17,17,0,0,0-.2,2,16.09,16.09,0,0,0,5.94,12.44L2167.6,1948.58h4.59l143.19-223.53a14.05,14.05,0,0,0,9,1.47L2379,1948.58h4l-54.9-222.95a16.16,16.16,0,0,0,7.65-6l337.72,176,87.53,45.61v-4.35l-423.49-220.7a15.17,15.17,0,0,0,.25-10.57L2761,1513.15v-4.24l-424.81,193.22a16.15,16.15,0,0,0-13.72-7.8l-192.93-1675a16.22,16.22,0,0,0,7.78-4.36L2761,496.75v-4.87l-621.35-480A16,16,0,0,0,2142,3.64a16,16,0,0,0-2.62-8.79l322.91-268.92h-6l-319.36,266a16.1,16.1,0,0,0-11.09-4.45,16.19,16.19,0,0,0-6.71,1.49l-160.44-263h-4.52L2115.8-9a16.13,16.13,0,0,0-6.21,12.67,15.92,15.92,0,0,0,.83,4.85L1934.93,88.05,1171.11,434.33a16.09,16.09,0,0,0-13.21-7.76l-58.64-700.64h-3.88l58.67,700.91A16.15,16.15,0,0,0,1141.29,441L365,451.54a16.14,16.14,0,0,0-10.09-12.91l184.72-712.7h-4L351.19,437.7a17,17,0,0,0-2.15-.21,16.12,16.12,0,0,0-14,8.26L-1393.47-274.07h-10l1737,723.38c-.15.52-.3,1-.4,1.58L315.76,450-1673.77,342.85a16.11,16.11,0,0,0-10.32-14l150.8-602.89h-4l-19.86,79.41-127.18,508.45v45.27A16,16,0,0,0-1678.31,355.25Zm2847.88,97.94a15.57,15.57,0,0,0,3.12-15.34L2112,12a16.14,16.14,0,0,0,13.72,7.81l192.93,1675a16.17,16.17,0,0,0-5.68,2.6ZM369.18,1206.82l778-751.61a15.93,15.93,0,0,0,19.61.61L2310.14,1700a16.14,16.14,0,0,0-2.83,4.7l-1935-486.15a15,15,0,0,0,.21-2A16.09,16.09,0,0,0,369.18,1206.82ZM351.12,469.67a16.1,16.1,0,0,0,13.94-14.28l776.28-10.54a15.93,15.93,0,0,0,3.11,7.6l-778,751.61a16,16,0,0,0-8.39-3.51Zm-1043.25,624.9L336.4,463.7a16.11,16.11,0,0,0,10.86,6l7,730.88a16.13,16.13,0,0,0-13.67,12.34l-1031.21-111.8A16.12,16.12,0,0,0-692.13,1094.57ZM-1676,352.16a15.86,15.86,0,0,0,2-5.46L333,454.75a16,16,0,0,0,1.4,5.67L-694.18,1091.29a16.12,16.12,0,0,0-12.64-6.18,16.12,16.12,0,0,0-11.54,4.86l-56.48-43.51Zm45.67,1596.42-54-413.92v29.85l50.09,384.07Z"/><g class="cls-8"><g class="cls-9"><polygon id="triangle36" class="cls-10" points="591.86 748.21 921.62 1309.95 1068.18 872.18 591.86 748.21"/><polygon id="triangle36-2" data-name="triangle36" class="cls-11" points="-312.87 887.68 591.86 748.21 -298.78 682.36 -312.87 887.68"/><polygon id="triangle36-3" data-name="triangle36" class="cls-12" points="496.03 351.12 591.86 748.21 -298.78 682.36 496.03 351.12"/><polygon id="triangle36-4" data-name="triangle36" class="cls-13" points="-312.87 887.68 591.86 748.21 400.2 1493.97 -312.87 887.68"/><polygon id="triangle36-5" data-name="triangle36" class="cls-14" points="560.85 1652.8 921.62 1309.95 400.2 1493.97 560.85 1652.8"/><polygon id="triangle36-6" data-name="triangle36" class="cls-15" points="591.86 748.21 921.62 1309.95 400.2 1493.97 591.86 748.21"/><polygon id="triangle36-7" data-name="triangle36" class="cls-16" points="921.62 1309.95 1068.18 872.18 2015.19 1009.71 921.62 1309.95"/><polygon id="triangle36-8" data-name="triangle36" class="cls-17" points="1068.18 872.18 1324.66 672.67 2015.19 1009.71 1068.18 872.18"/><polygon class="cls-18" points="2012.85 2037.16 560.85 1652.8 921.62 1309.95 2074.72 2037.16 2012.85 2037.16"/><polygon class="cls-19" points="2074.72 2037.16 921.62 1309.95 2015.19 1009.71 2116.68 2037.16 2074.72 2037.16"/><polygon id="triangle36-9" data-name="triangle36" class="cls-20" points="496.03 351.12 591.86 748.21 763.78 436.35 496.03 351.12"/><polygon id="triangle36-10" data-name="triangle36" class="cls-21" points="591.86 748.21 1068.18 872.18 763.78 436.35 591.86 748.21"/><polygon id="triangle36-11" data-name="triangle36" class="cls-22" points="1068.18 872.18 1324.66 672.67 763.78 436.35 1068.18 872.18"/><polygon id="triangle36-12" data-name="triangle36" class="cls-23" points="1324.66 672.67 1403.58 382.12 763.78 436.35 1324.66 672.67"/><polygon id="triangle36-13" data-name="triangle36" class="cls-24" points="-1290.88 1476.53 -312.87 887.68 16.89 1838.76 -1290.88 1476.53"/><polygon id="triangle36-14" data-name="triangle36" class="cls-25" points="-312.87 887.68 400.2 1493.97 16.89 1838.76 -312.87 887.68"/><polygon id="triangle36-15" data-name="triangle36" class="cls-26" points="-298.78 682.36 496.03 351.12 -76.12 101.25 -298.78 682.36"/><polygon class="cls-27" points="63.03 -405.32 -76.12 101.25 -48.31 -405.32 63.03 -405.32"/><polygon class="cls-28" points="345.17 -405.32 887.8 -67.27 -76.12 101.25 63.03 -405.32 345.17 -405.32"/><polygon id="triangle36-16" data-name="triangle36" class="cls-29" points="-76.12 101.25 496.03 351.12 887.8 -67.27 -76.12 101.25"/><polygon id="triangle36-17" data-name="triangle36" class="cls-30" points="496.03 351.12 763.78 436.35 887.8 -67.27 496.03 351.12"/><polygon id="triangle36-18" data-name="triangle36" class="cls-31" points="763.78 436.35 1403.58 382.12 887.8 -67.27 763.78 436.35"/><polygon id="triangle36-19" data-name="triangle36" class="cls-32" points="1403.58 382.12 1620.6 -270.66 887.8 -67.27 1403.58 382.12"/></g><g class="cls-9"><polygon id="triangle36-20" data-name="triangle36" class="cls-33" points="1472.53 1230.52 1439.2 1087.39 668.6 1319.27 1472.53 1230.52"/><polygon id="triangle36-21" data-name="triangle36" class="cls-34" points="668.6 1319.27 -6.2 1831.7 -672.67 835.47 668.6 1319.27"/><polygon id="triangle36-22" data-name="triangle36" class="cls-35" points="1439.2 1087.39 1068.48 835.47 851.88 895.59 1439.2 1087.39"/><polygon id="triangle36-23" data-name="triangle36" class="cls-36" points="1439.2 1087.39 668.6 1319.27 851.88 895.59 1439.2 1087.39"/><polygon id="triangle36-24" data-name="triangle36" class="cls-37" points="1118.46 -74.88 1068.48 835.47 851.88 895.59 1118.46 -74.88"/><polygon id="triangle36-25" data-name="triangle36" class="cls-38" points="668.6 1319.27 -672.67 835.47 851.88 895.59 668.6 1319.27"/><polygon class="cls-39" points="285.51 2037.16 -6.2 1831.7 668.6 1319.27 774.41 2037.16 285.51 2037.16"/><polygon class="cls-40" points="19.75 2037.16 -6.2 1831.7 285.51 2037.16 19.75 2037.16"/><polygon class="cls-41" points="-503.23 2037.16 -6.2 1831.7 19.75 2037.16 -503.23 2037.16"/><polygon id="triangle36-26" data-name="triangle36" class="cls-42" points="1118.46 -74.88 851.88 895.59 -306.11 174.18 1118.46 -74.88"/><polygon class="cls-43" points="361.85 -405.32 1118.46 -74.88 -306.11 174.18 236.5 -405.32 361.85 -405.32"/><polygon id="triangle36-27" data-name="triangle36" class="cls-44" points="851.88 895.59 -672.67 835.47 -306.11 174.18 851.88 895.59"/><polygon class="cls-45" points="236.5 -405.32 -306.11 174.18 -163.42 -405.32 236.5 -405.32"/><polygon id="triangle36-28" data-name="triangle36" class="cls-46" points="1472.53 1230.52 668.6 1319.27 1734.95 2006.32 1472.53 1230.52"/><polygon class="cls-47" points="774.41 2037.16 668.6 1319.27 1734.95 2006.32 1667.79 2037.16 774.41 2037.16"/><polygon id="triangle36-29" data-name="triangle36" class="cls-48" points="1439.2 1087.39 1068.48 835.47 2022.36 683.74 1439.2 1087.39"/><polygon id="triangle36-30" data-name="triangle36" class="cls-49" points="1118.46 -74.88 1068.48 835.47 2022.36 683.74 1118.46 -74.88"/></g><path class="cls-50" d="M2745.22-404.29C2586.75-59.54,1654.66,205.16,528.39,205.16S-1530-59.54-1688.47-404.29Z"/></g><path class="cls-51" d="M59.32,1257.15a6.75,6.75,0,1,0,6.75-6.75A6.75,6.75,0,0,0,59.32,1257.15Z"/><path class="cls-52" d="M205.12,1329.28a6.39,6.39,0,1,0,6.39-6.4A6.39,6.39,0,0,0,205.12,1329.28Z"/><path class="cls-53" d="M326.42,1561.42a9.58,9.58,0,1,0,9.58-9.58A9.58,9.58,0,0,0,326.42,1561.42Z"/><path class="cls-54" d="M487.7,1539.32a13.78,13.78,0,1,0,13.77-13.77A13.78,13.78,0,0,0,487.7,1539.32Z"/><path class="cls-55" d="M696.27,1297.25a14,14,0,1,0,14-14A14,14,0,0,0,696.27,1297.25Z"/><path class="cls-56" d="M779,1599.15a13.84,13.84,0,1,0,13.84-13.84A13.84,13.84,0,0,0,779,1599.15Z"/><path class="cls-57" d="M1043.69,1580.27a9.07,9.07,0,1,0,9.06-9.06A9.07,9.07,0,0,0,1043.69,1580.27Z"/><path class="cls-58" d="M1062.14,1359.76a16.78,16.78,0,1,0,16.78-16.77A16.77,16.77,0,0,0,1062.14,1359.76Z"/><circle class="cls-59" cx="934.71" cy="1229.8" r="8.13"/><circle class="cls-60" cx="1016.94" cy="1043.52" r="9.5"/><path class="cls-61" d="M51.73,1460.86a11.62,11.62,0,1,0,11.62-11.62A11.61,11.61,0,0,0,51.73,1460.86Z"/><path class="cls-62" d="M123.6,1482.28a8.68,8.68,0,1,0,8.67-8.68A8.68,8.68,0,0,0,123.6,1482.28Z"/><circle class="cls-63" cx="286.82" cy="1498.61" r="13.8"/><path class="cls-64" d="M350.64,1541.05a5.49,5.49,0,1,0,5.49-5.49A5.49,5.49,0,0,0,350.64,1541.05Z"/><circle class="cls-65" cx="588.86" cy="1530" r="6.31" transform="translate(-1049.87 1482.88) rotate(-67.3)"/><path class="cls-66" d="M646.48,1654.72a16.25,16.25,0,1,0,16.25-16.24A16.25,16.25,0,0,0,646.48,1654.72Z"/><circle class="cls-67" cx="708.02" cy="1646.78" r="13.04" transform="translate(-252.36 133.22) rotate(-9.13)"/><path class="cls-68" d="M768.06,1765.45a13.2,13.2,0,1,0,13.19-13.2A13.2,13.2,0,0,0,768.06,1765.45Z"/><circle class="cls-69" cx="838.56" cy="1752.95" r="7.41" transform="translate(-1102.32 1847.91) rotate(-67.24)"/><path class="cls-70" d="M871.91,1756.72a5.85,5.85,0,1,0,5.84-5.85A5.85,5.85,0,0,0,871.91,1756.72Z"/><path class="cls-71" d="M899.37,1447.3a15.19,15.19,0,1,0,15.19-15.18A15.19,15.19,0,0,0,899.37,1447.3Z"/><circle class="cls-72" cx="775.33" cy="1525.67" r="12.37"/><path class="cls-73" d="M834.72,1398.52a6,6,0,1,0,6-6A6,6,0,0,0,834.72,1398.52Z"/><circle class="cls-74" cx="952.17" cy="1383.36" r="7.4"/></g></g><path class="cls-75" d="M69.29,1711.28l2.08-6.09H68l-2,6.09H62.55l2-6.09H61.15l.93-2.91H65.6l1.94-5.92H64.06l.89-2.87h3.59l2-6.13h3.37l-2,6.13h3.37l2-6.13H80.7l-2.08,6.13H82.1l-.83,2.87H77.65l-2,5.92H79.3l-.9,2.91H74.71l-2,6.09Zm5-14.92H70.91L69,1702.28h3.34Z"/><path class="cls-75" d="M93.86,1711.28v-23.92H99v19.44h10.12v4.48Z"/><path class="cls-75" d="M121.55,1711.28v-23.92h16.93v4.48H126.64v5h11.59v4.49H126.64v5.45h11.84v4.48Z"/><path class="cls-75" d="M157,1711.28v-19.44h-7v-4.48h19.08v4.48h-6.95v19.44Z"/><path class="cls-75" d="M183,1697.33l-2-1.61a6.09,6.09,0,0,0,2.76-3.41,1.61,1.61,0,0,1-.68.11,2.43,2.43,0,0,1-2.44-2.59,2.86,2.86,0,0,1,2.83-2.83c1.69,0,3.19,1.33,3.19,3.66A8.27,8.27,0,0,1,183,1697.33Z"/><path class="cls-75" d="M197.83,1707.91l2.79-4a10.52,10.52,0,0,0,7.61,3.26c2.83,0,4.16-1.25,4.16-2.65,0-4.16-13.78-1.26-13.78-10.26,0-4,3.45-7.28,9.08-7.28a13.32,13.32,0,0,1,9.33,3.34l-2.84,3.8a10.28,10.28,0,0,0-7-2.62c-2.15,0-3.37.93-3.37,2.37,0,3.76,13.74,1.21,13.74,10.15,0,4.37-3.16,7.67-9.58,7.67C203.39,1711.71,200.09,1710.17,197.83,1707.91Z"/><path class="cls-75" d="M261.73,1711.28l-4.7-8.5H253.3v8.5h-5.09v-23.92h11.18c5,0,8.08,3.26,8.08,7.71a6.91,6.91,0,0,1-5.28,7.1l5.42,9.11Zm.5-16.25c0-2-1.54-3.19-3.55-3.19H253.3v6.46h5.38A3.24,3.24,0,0,0,262.23,1695Z"/><path class="cls-75" d="M280.27,1711.28v-23.92H297.2v4.48H285.37v5H297v4.49H285.37v5.45H297.2v4.48Z"/><path class="cls-75" d="M310.19,1711.28v-23.92h12.59c4.55,0,6.88,2.91,6.88,6.1a5.33,5.33,0,0,1-4.12,5.48,5.76,5.76,0,0,1,4.59,5.85c0,3.62-2.37,6.49-7,6.49Zm14.27-16.93a2.51,2.51,0,0,0-2.79-2.51h-6.39v5h6.39C323.39,1696.86,324.46,1695.9,324.46,1694.35Zm.47,9.72a2.73,2.73,0,0,0-3.05-2.72h-6.6v5.45h6.6C323.78,1706.8,324.93,1705.79,324.93,1704.07Z"/><path class="cls-75" d="M343,1701.71v-14.35h5.16v14.2c0,3.34,1.94,5.63,5.63,5.63s5.6-2.29,5.6-5.63v-14.2h5.2v14.35c0,5.91-3.52,10-10.8,10S343,1707.62,343,1701.71Z"/><path class="cls-75" d="M378.31,1711.28v-23.92h5.1v23.92Z"/><path class="cls-75" d="M396.91,1711.28v-23.92H402v19.44h10.12v4.48Z"/><path class="cls-75" d="M424.6,1711.28v-23.92H434c7.5,0,12.7,4.77,12.7,11.94s-5.2,12-12.66,12Zm16.93-12c0-4.2-2.58-7.46-7.46-7.46H429.7v15H434A7.17,7.17,0,0,0,441.53,1699.3Z"/><path class="cls-75" d="M491.77,1711.28l-7.24-9.61-1.87,2.26v7.35h-5.09v-23.92h5.09V1698l8.47-10.65h6.27l-9.5,11.22,10.15,12.7Z"/><path class="cls-75" d="M509.39,1711.28v-23.92h16.92v4.48H514.48v5h11.59v4.49H514.48v5.45h11.83v4.48Z"/><path class="cls-75" d="M552.82,1711.28l-4.7-8.5H544.4v8.5h-5.1v-23.92h11.19c5,0,8.07,3.26,8.07,7.71a6.92,6.92,0,0,1-5.27,7.1l5.42,9.11Zm.51-16.25c0-2-1.55-3.19-3.55-3.19H544.4v6.46h5.38A3.25,3.25,0,0,0,553.33,1695Z"/><path class="cls-75" d="M587.9,1711.28l-1.5-4H576.14l-1.51,4h-5.77l9.22-23.92h6.38l9.22,23.92Zm-6.63-18.83-3.73,10.3H585Z"/><path class="cls-75" d="M604.69,1711.28v-23.92h5.13v19.44h10.12v4.48Z"/><path class="cls-75" d="M648.92,1711.28l-1.51-4H637.15l-1.5,4h-5.78l9.22-23.92h6.38l9.22,23.92Zm-6.64-18.83-3.73,10.3H646Z"/><path class="cls-75" d="M328.14,1752.25c-6.44-7.38-13.74-15.75-28.16-15.75s-21.72,8.37-28.16,15.75c-6,6.84-11.12,12.74-21.55,12.74s-15.59-5.9-21.56-12.74c-6.43-7.38-13.73-15.75-28.16-15.75s-21.72,8.37-28.16,15.75c-6,6.84-11.12,12.74-21.55,12.74s-15.58-5.9-21.55-12.74c-6.44-7.38-13.74-15.75-28.16-15.75s-21.72,8.37-28.16,15.75c-6,6.84-11.11,12.74-21.55,12.74s-15.58-5.9-21.55-12.74c-6.4-7.33-13.65-15.63-27.87-15.74v8.77c10.23.11,15.35,6,21.26,12.73,6.44,7.38,13.74,15.75,28.16,15.75s21.72-8.37,28.16-15.75c6-6.84,11.12-12.74,21.55-12.74s15.59,5.9,21.55,12.74c6.44,7.38,13.74,15.75,28.16,15.75s21.72-8.37,28.16-15.75c6-6.84,11.12-12.74,21.55-12.74s15.59,5.9,21.56,12.74c6.44,7.38,13.74,15.75,28.16,15.75s21.72-8.37,28.16-15.75c6-6.84,11.12-12.74,21.55-12.74s15.59,5.9,21.55,12.74c6.41,7.35,13.67,15.66,28,15.74V1765C339.19,1764.9,334.07,1759,328.14,1752.25Z"/><path class="cls-75" d="M328.14,1779c-6.44-7.38-13.74-15.75-28.16-15.75s-21.72,8.37-28.16,15.75c-6,6.84-11.12,12.75-21.55,12.75s-15.59-5.91-21.56-12.75c-6.43-7.38-13.73-15.75-28.16-15.75s-21.72,8.37-28.16,15.75c-6,6.84-11.12,12.75-21.55,12.75s-15.58-5.91-21.55-12.75c-6.44-7.38-13.74-15.75-28.16-15.75S79.41,1771.66,73,1779c-6,6.84-11.11,12.75-21.55,12.75s-15.58-5.91-21.55-12.75c-6.4-7.33-13.65-15.62-27.87-15.74v8.77c10.23.11,15.35,6,21.26,12.73,6.44,7.39,13.74,15.76,28.16,15.76s21.72-8.37,28.16-15.76c6-6.83,11.12-12.74,21.55-12.74s15.59,5.91,21.55,12.74c6.44,7.39,13.74,15.76,28.16,15.76s21.72-8.37,28.16-15.76c6-6.83,11.12-12.74,21.55-12.74s15.59,5.91,21.56,12.74c6.44,7.39,13.74,15.76,28.16,15.76s21.72-8.37,28.16-15.76c6-6.83,11.12-12.74,21.55-12.74s15.59,5.91,21.55,12.74c6.41,7.35,13.67,15.66,28,15.75v-8.77C339.19,1791.7,334.07,1785.83,328.14,1779Z"/><path class="cls-75" d="M328.14,1805.83c-6.44-7.38-13.74-15.75-28.16-15.75s-21.72,8.37-28.16,15.75c-6,6.84-11.12,12.75-21.55,12.75s-15.59-5.91-21.56-12.75c-6.43-7.38-13.73-15.75-28.16-15.75s-21.72,8.37-28.16,15.75c-6,6.84-11.12,12.75-21.55,12.75s-15.58-5.91-21.55-12.75c-6.44-7.38-13.74-15.75-28.16-15.75s-21.72,8.37-28.16,15.75c-6,6.84-11.11,12.75-21.55,12.75s-15.58-5.91-21.55-12.75c-6.4-7.33-13.65-15.62-27.87-15.74v8.77c10.23.11,15.35,6,21.26,12.74,6.44,7.38,13.74,15.75,28.16,15.75s21.72-8.37,28.16-15.75c6-6.84,11.12-12.75,21.55-12.75s15.59,5.91,21.55,12.75c6.44,7.38,13.74,15.75,28.16,15.75S172.56,1819,179,1811.6c6-6.84,11.12-12.75,21.55-12.75s15.59,5.91,21.56,12.75c6.44,7.38,13.74,15.75,28.16,15.75S272,1819,278.43,1811.6c6-6.84,11.12-12.75,21.55-12.75s15.59,5.91,21.55,12.75c6.41,7.34,13.67,15.65,28,15.74v-8.77C339.19,1818.49,334.07,1812.62,328.14,1805.83Z"/><path class="cls-75" d="M329.61,1832.62c-6.45-7.38-13.75-15.74-28.17-15.74s-21.72,8.36-28.16,15.74c-6,6.84-11.11,12.75-21.55,12.75s-15.59-5.9-21.55-12.74c-6.44-7.39-13.74-15.75-28.16-15.75s-21.73,8.36-28.17,15.75c-6,6.84-11.11,12.74-21.55,12.74s-15.58-5.9-21.55-12.74c-6.44-7.39-13.74-15.75-28.16-15.75s-21.72,8.36-28.16,15.75c-6,6.84-11.11,12.74-21.55,12.74s-15.58-5.9-21.55-12.74c-6.44-7.39-13.74-15.75-28.16-15.75a4.53,4.53,0,0,0-1.17.17v8.42a4.53,4.53,0,0,0,1.17.17c10.44,0,15.59,5.91,21.55,12.75,6.44,7.38,13.74,15.75,28.16,15.75s21.72-8.37,28.16-15.75c6-6.84,11.12-12.75,21.55-12.75s15.59,5.91,21.55,12.75c6.44,7.38,13.74,15.75,28.16,15.75s21.72-8.37,28.16-15.75c6-6.84,11.12-12.75,21.56-12.75s15.58,5.91,21.55,12.75c6.44,7.38,13.74,15.75,28.16,15.75s21.72-8.37,28.16-15.75c6-6.84,11.12-12.75,21.55-12.75s15.59,5.91,21.56,12.75c6.18,7.09,13.17,15.06,26.48,15.69v-8.77C340.16,1844.71,335.24,1839.08,329.61,1832.62Z"/><path class="cls-75" d="M627.83,1752.25c-6.44-7.38-13.74-15.75-28.16-15.75s-21.72,8.37-28.16,15.75c-6,6.84-11.12,12.74-21.55,12.74s-15.59-5.9-21.56-12.74c-6.44-7.38-13.74-15.75-28.16-15.75s-21.72,8.37-28.16,15.75c-6,6.84-11.12,12.74-21.55,12.74s-15.59-5.9-21.55-12.74c-6.44-7.38-13.74-15.75-28.16-15.75s-21.72,8.37-28.16,15.75c-6,6.84-11.12,12.74-21.55,12.74s-15.59-5.9-21.55-12.74c-6.4-7.33-13.65-15.63-27.87-15.74v8.77c10.23.11,15.35,6,21.26,12.73,6.44,7.38,13.74,15.75,28.16,15.75s21.72-8.37,28.16-15.75c6-6.84,11.12-12.74,21.55-12.74s15.59,5.9,21.55,12.74c6.44,7.38,13.74,15.75,28.16,15.75s21.72-8.37,28.16-15.75c6-6.84,11.12-12.74,21.55-12.74s15.59,5.9,21.55,12.74c6.45,7.38,13.74,15.75,28.17,15.75s21.72-8.37,28.16-15.75c6-6.84,11.12-12.74,21.55-12.74s15.59,5.9,21.55,12.74c6.41,7.35,13.67,15.66,27.95,15.74V1765C638.88,1764.9,633.75,1759,627.83,1752.25Z"/><path class="cls-75" d="M627.83,1779c-6.44-7.38-13.74-15.75-28.16-15.75S578,1771.66,571.51,1779c-6,6.84-11.12,12.75-21.55,12.75s-15.59-5.91-21.56-12.75c-6.44-7.38-13.74-15.75-28.16-15.75s-21.72,8.37-28.16,15.75c-6,6.84-11.12,12.75-21.55,12.75S434.94,1785.88,429,1779c-6.44-7.38-13.74-15.75-28.16-15.75s-21.72,8.37-28.16,15.75c-6,6.84-11.12,12.75-21.55,12.75s-15.59-5.91-21.55-12.75c-6.4-7.33-13.65-15.62-27.87-15.74v8.77c10.23.11,15.35,6,21.26,12.73,6.44,7.39,13.74,15.76,28.16,15.76s21.72-8.37,28.16-15.76c6-6.83,11.12-12.74,21.55-12.74s15.59,5.91,21.55,12.74c6.44,7.39,13.74,15.76,28.16,15.76s21.72-8.37,28.16-15.76c6-6.83,11.12-12.74,21.55-12.74s15.59,5.91,21.55,12.74c6.45,7.39,13.74,15.76,28.17,15.76s21.72-8.37,28.16-15.76c6-6.83,11.12-12.74,21.55-12.74s15.59,5.91,21.55,12.74c6.41,7.35,13.67,15.66,27.95,15.75v-8.77C638.88,1791.7,633.75,1785.83,627.83,1779Z"/><path class="cls-75" d="M627.83,1805.83c-6.44-7.38-13.74-15.75-28.16-15.75s-21.72,8.37-28.16,15.75c-6,6.84-11.12,12.75-21.55,12.75s-15.59-5.91-21.56-12.75c-6.44-7.38-13.74-15.75-28.16-15.75s-21.72,8.37-28.16,15.75c-6,6.84-11.12,12.75-21.55,12.75s-15.59-5.91-21.55-12.75c-6.44-7.38-13.74-15.75-28.16-15.75s-21.72,8.37-28.16,15.75c-6,6.84-11.12,12.75-21.55,12.75s-15.59-5.91-21.55-12.75c-6.4-7.33-13.65-15.62-27.87-15.74v8.77c10.23.11,15.35,6,21.26,12.74,6.44,7.38,13.74,15.75,28.16,15.75s21.72-8.37,28.16-15.75c6-6.84,11.12-12.75,21.55-12.75s15.59,5.91,21.55,12.75c6.44,7.38,13.74,15.75,28.16,15.75s21.72-8.37,28.16-15.75c6-6.84,11.12-12.75,21.55-12.75s15.59,5.91,21.55,12.75c6.45,7.38,13.74,15.75,28.17,15.75s21.72-8.37,28.16-15.75c6-6.84,11.12-12.75,21.55-12.75s15.59,5.91,21.55,12.75c6.41,7.34,13.67,15.65,27.95,15.74v-8.77C638.88,1818.49,633.75,1812.62,627.83,1805.83Z"/><path class="cls-75" d="M629.29,1832.62c-6.44-7.38-13.74-15.74-28.16-15.74s-21.72,8.36-28.16,15.74c-6,6.84-11.12,12.75-21.55,12.75s-15.59-5.9-21.55-12.74c-6.45-7.39-13.74-15.75-28.17-15.75s-21.72,8.36-28.16,15.75c-6,6.84-11.12,12.74-21.55,12.74s-15.58-5.9-21.55-12.74c-6.44-7.39-13.74-15.75-28.16-15.75s-21.72,8.36-28.16,15.75c-6,6.84-11.11,12.74-21.55,12.74s-15.59-5.9-21.55-12.74c-6.44-7.39-13.74-15.75-28.16-15.75a4.47,4.47,0,0,0-1.17.17v8.42a4.47,4.47,0,0,0,1.17.17c10.43,0,15.59,5.91,21.55,12.75,6.44,7.38,13.74,15.75,28.16,15.75s21.72-8.37,28.16-15.75c6-6.84,11.12-12.75,21.55-12.75s15.59,5.91,21.55,12.75c6.44,7.38,13.74,15.75,28.16,15.75s21.72-8.37,28.16-15.75c6-6.84,11.12-12.75,21.55-12.75s15.59,5.91,21.56,12.75c6.44,7.38,13.74,15.75,28.16,15.75s21.72-8.37,28.16-15.75c6-6.84,11.12-12.75,21.55-12.75s15.59,5.91,21.55,12.75c6.19,7.09,13.18,15.06,26.49,15.69v-8.77C639.84,1844.71,634.93,1839.08,629.29,1832.62Z"/><path class="cls-76" d="M318.89,509.69a58.69,58.69,0,1,0,58.69,58.68A58.69,58.69,0,0,0,318.89,509.69Zm0,100.6a41.92,41.92,0,1,1,41.92-41.92A41.92,41.92,0,0,1,318.89,610.29Z"/><path class="cls-75" d="M578.79,622.87c0-7.58-1.26-30.75-1.14-46.64.31-2.43-.13-5.56-.13-8.07,0-1.36-.43-2.56-.52-3.89,0-.64.51-1.21.56-1.7l.35-.09a57.54,57.54,0,0,0-57.81-52.79,58.69,58.69,0,1,0,42.19,99.45c-.19,4.59-.27,9.2-.27,13.73a58.69,58.69,0,0,0,58.69,58.69V664.79A41.92,41.92,0,0,1,578.79,622.87ZM520.1,610.29A41.92,41.92,0,1,1,562,568.37,41.92,41.92,0,0,1,520.1,610.29Z"/><path class="cls-75" d="M419.49,509.69a58.53,58.53,0,0,0-43.59,19.4V451H360.81V568.37a58.69,58.69,0,1,0,58.68-58.68Zm0,100.6a41.92,41.92,0,1,1,41.92-41.92A41.91,41.91,0,0,1,419.49,610.29Z"/><path class="cls-77" d="M461.41,568.37a41.92,41.92,0,0,1-41.92,41.92v16.77a58.68,58.68,0,0,0,58.69-58.69,41.92,41.92,0,0,1,41.92-41.92V509.69A58.69,58.69,0,0,0,461.41,568.37Z"/><path class="cls-78" d="M779.62,575l-.06.49a58.68,58.68,0,1,0-10,26.38A59.72,59.72,0,0,0,796.18,628V608.42A42.7,42.7,0,0,1,779.62,575Zm-58.31,35.33a41.92,41.92,0,1,1,41.92-41.92A41.92,41.92,0,0,1,721.31,610.29Z"/><path class="cls-79" d="M662.76,568.37h0a42.05,42.05,0,0,1-84.1,0h0v-58H562l.09,61.26h0a58.68,58.68,0,0,0,100.78,37.52Z"/><path class="cls-75" d="M679.39,527.32V510.39H662.62V624.7h16.77V568.37a41.92,41.92,0,0,1,41.92-41.92V509.69A58.48,58.48,0,0,0,679.39,527.32Z"/><path class="cls-75" d="M631.37,683.75v-2.29l2.92-2.84c7-6.69,10.21-10.25,10.25-14.4,0-2.79-1.35-5.38-5.46-5.38a9.38,9.38,0,0,0-5.85,2.33L632,658.55a12.1,12.1,0,0,1,7.8-2.8c5.93,0,8.43,4.07,8.43,8,0,5.08-3.69,9.19-9.49,14.78l-2.2,2v.09H649v3.09Z"/><path class="cls-75" d="M654.41,655.2h3.69V669h.13c.76-1.11,1.52-2.12,2.24-3.05l8.73-10.72h4.57l-10.33,12.11,11.14,16.44h-4.37l-9.4-14-2.71,3.13v10.89h-3.69Z"/><path class="cls-75" d="M693.13,659.69h-.08l-4.79,2.58-.72-2.83,6-3.22h3.17v27.53h-3.6Z"/><path class="cls-75" d="M706.44,676.76c0-3.47,2.07-5.93,5.46-7.37l0-.13c-3.05-1.44-4.36-3.81-4.36-6.18,0-4.36,3.68-7.33,8.51-7.33,5.34,0,8,3.35,8,6.78,0,2.33-1.15,4.83-4.54,6.44v.12c3.43,1.36,5.55,3.77,5.55,7.12,0,4.79-4.11,8-9.36,8C709.91,684.22,706.44,680.78,706.44,676.76Zm14.82-.17c0-3.35-2.33-5-6-6-3.22.93-5,3-5,5.67-.13,2.8,2,5.25,5.51,5.25C719.1,681.5,721.26,679.43,721.26,676.59ZM711,662.82c0,2.76,2.08,4.24,5.25,5.09,2.38-.81,4.2-2.5,4.2-5a4.28,4.28,0,0,0-4.66-4.49C712.71,658.42,711,660.45,711,662.82Z"/><path class="cls-75" d="M738.34,670.91v2.76H727.87v-2.76Z"/><path class="cls-75" d="M749.61,659.69h-.09l-4.79,2.58-.72-2.83,6-3.22h3.18v27.53h-3.6Z"/><path class="cls-75" d="M765.41,681.12a15.66,15.66,0,0,0,3-.12,10.44,10.44,0,0,0,5.76-2.67,12.1,12.1,0,0,0,3.64-7.33h-.13a8.08,8.08,0,0,1-6.48,3c-5,0-8.13-3.72-8.13-8.42,0-5.21,3.77-9.79,9.4-9.79s9.11,4.58,9.11,11.61c0,6-2,10.29-4.75,12.92a13.78,13.78,0,0,1-8,3.68,16.91,16.91,0,0,1-3.43.21Zm1.35-15.84c0,3.43,2.08,5.85,5.3,5.85a6.16,6.16,0,0,0,5.42-2.88,2.5,2.5,0,0,0,.34-1.36c0-4.7-1.74-8.3-5.63-8.3C769,658.59,766.76,661.38,766.76,665.28Z"/><path class="cls-75" d="M310.83,745v-23.1H306.1v-2.61h12.3v2.61h-4.74V745Z"/><path class="cls-75" d="M336.84,730.64v2.58h-6.28v9.14h7.71V745H327.69V719.26h10.58v2.61h-7.71v8.77Z"/><path class="cls-75" d="M359.61,725.47v2.31h-2.72v-2.46c0-2.32-.91-3.71-3-3.71s-3,1.39-3,3.71v13.59c0,2.31.95,3.71,3,3.71s3-1.4,3-3.71v-3.34h2.72v3.19c0,3.9-1.83,6.47-5.8,6.47s-5.77-2.57-5.77-6.47V725.47c0-3.9,1.84-6.47,5.77-6.47S359.61,721.57,359.61,725.47Z"/><path class="cls-75" d="M372.43,733.4V745h-2.87V719.26h2.87v11.57h6.32V719.26h2.86V745h-2.86V733.4Z"/><path class="cls-75" d="M394.43,745h-2.57V719.26h3.64l5.95,18.58V719.26H404V745h-3l-6.58-20.79Z"/><path class="cls-75" d="M417.13,719.26V745h-2.86V719.26Z"/><path class="cls-75" d="M438.77,725.47v2.31h-2.72v-2.46c0-2.32-.92-3.71-3-3.71s-3,1.39-3,3.71v13.59c0,2.31,1,3.71,3,3.71s3-1.4,3-3.71v-3.34h2.72v3.19c0,3.9-1.84,6.47-5.81,6.47s-5.77-2.57-5.77-6.47V725.47c0-3.9,1.84-6.47,5.77-6.47S438.77,721.57,438.77,725.47Z"/><path class="cls-75" d="M451.62,739.79l-1,5.18H448l4.93-25.71h4.15L462,745h-2.87l-1-5.18Zm.37-2.46h5.73l-2.9-14.84Z"/><path class="cls-75" d="M471.56,745V719.26h2.87v23.1h7.35V745Z"/><path class="cls-75" d="M513.11,731.23v2.61h-5.92V745h-2.86V719.26h10.21v2.61h-7.35v9.36Z"/><path class="cls-75" d="M527,719.26V745h-2.87V719.26Z"/><path class="cls-75" d="M546.46,730.64v2.58h-6.28v9.14h7.71V745H537.31V719.26h10.58v2.61h-7.71v8.77Z"/><path class="cls-75" d="M569,725.43v.7h-2.72v-.85c0-2.31-.88-3.67-2.94-3.67s-2.93,1.36-2.93,3.63c0,5.77,8.63,6.32,8.63,13.56,0,3.89-1.87,6.43-5.81,6.43s-5.76-2.54-5.76-6.43v-1.47h2.68V739c0,2.31,1,3.67,3,3.67s3-1.36,3-3.67c0-5.73-8.59-6.28-8.59-13.52,0-4,1.83-6.43,5.69-6.43S569,721.53,569,725.43Z"/><path class="cls-75" d="M582.6,745v-23.1h-4.74v-2.61h12.31v2.61h-4.74V745Z"/><path class="cls-75" d="M601,739.79,600,745h-2.64l4.92-25.71h4.15L611.33,745h-2.87l-1-5.18Zm.36-2.46h5.73l-2.9-14.84Z"/><path class="cls-75" d="M633.73,725.47c0-3.94,1.95-6.47,5.88-6.47s5.91,2.53,5.91,6.47v13.29c0,3.9-1.95,6.47-5.91,6.47s-5.88-2.57-5.88-6.47Zm2.83,13.44c0,2.35,1,3.71,3.05,3.71s3-1.36,3-3.71V725.32c0-2.32-1-3.71-3-3.71s-3.05,1.39-3.05,3.71Z"/><path class="cls-75" d="M664.36,731.23v2.61h-5.91V745h-2.87V719.26H665.8v2.61h-7.35v9.36Z"/><path class="cls-75" d="M691.32,719.26V745h-2.86V719.26Z"/><path class="cls-75" d="M713,725.47v2.31h-2.72v-2.46c0-2.32-.92-3.71-3-3.71s-3,1.39-3,3.71v13.59c0,2.31.95,3.71,3,3.71s3-1.4,3-3.71v-3.34H713v3.19c0,3.9-1.84,6.47-5.81,6.47s-5.76-2.57-5.76-6.47V725.47c0-3.9,1.83-6.47,5.76-6.47S713,721.57,713,725.47Z"/><path class="cls-75" d="M732.06,730.64v2.58h-6.28v9.14h7.71V745H722.91V719.26h10.58v2.61h-7.71v8.77Z"/><path class="cls-75" d="M747.19,745v-23.1h-4.74v-2.61h12.31v2.61H750V745Z"/><path class="cls-75" d="M262,1361.86v-20.44h48v20.44H299.06v51.29H310v20.57H262v-20.57h10.81v-51.29Z"/><path class="cls-75" d="M321.6,1362.12v-20.7h47.74v20.7H358.39v49.45h22.42l1.05-14.64h22.81v36.79H322.26v-20.57h9.89v-51Z"/><path class="cls-75" d="M477.32,1433.72v-18.59l8.18-.79-2.9-8H449.9l-2.9,8.17,8.7.66v18.59H409.42v-20.57H419.7l22.95-51.29H432.23v-20.44H481l32,71.73h10.15v20.57Zm-2.5-47.86-8.7-22.28-8.44,22.28Z"/><path class="cls-75" d="M635.29,1413.15v20.57H588v-20.57H598.5v-15.69H566.06v15.69h10.42v20.57H529.27v-20.57h11v-51.29h-11v-20.44h47.21v20.44H566.06v14.64H598.5v-14.64H588v-20.44h47.34v20.44H624.21v51.29Z"/><path class="cls-75" d="M646.76,1361.86v-20.44h48v20.44H683.81v51.29h10.94v20.57h-48v-20.57h10.81v-51.29Z"/><path class="cls-75" d="M770.17,1433.72v-18.59l8.18-.79-2.9-8h-32.7l-2.9,8.17,8.7.66v18.59H702.27v-20.57h10.28l22.94-51.29H725.08v-20.44h48.78l32,71.73h10.15v20.57Zm-2.5-47.86-8.7-22.28-8.44,22.28Z"/><path class="cls-75" d="M257.51,1459.54a9.37,9.37,0,0,1,9.64-9.69,8.32,8.32,0,0,1,7.11,3.71l-1.94,1.09a6.31,6.31,0,0,0-5.17-2.72c-4.11,0-7.23,3.12-7.23,7.61s3.12,7.62,7.23,7.62a6.37,6.37,0,0,0,5.17-2.73l2,1.07a8.41,8.41,0,0,1-7.13,3.74A9.37,9.37,0,0,1,257.51,1459.54Z"/><path class="cls-75" d="M276.5,1459.54c0-5.53,3.77-9.69,9.31-9.69s9.33,4.16,9.33,9.69-3.8,9.7-9.33,9.7S276.5,1465.08,276.5,1459.54Zm16.22,0c0-4.38-2.73-7.61-6.91-7.61s-6.89,3.23-6.89,7.61,2.67,7.62,6.89,7.62S292.72,1463.9,292.72,1459.54Z"/><path class="cls-75" d="M298.45,1468.9v-18.74h2.33v16.66h8.72v2.08Z"/><path class="cls-75" d="M312.3,1468.9v-18.74h2.34v16.66h8.71v2.08Z"/><path class="cls-75" d="M326.47,1468.9v-18.74h12.28v2.08H328.8v6h9.75v2.08H328.8v6.46h9.95v2.08Z"/><path class="cls-75" d="M341.7,1459.54a9.36,9.36,0,0,1,9.64-9.69,8.93,8.93,0,0,1,7.28,3.48l-1.86,1.18a6.92,6.92,0,0,0-5.42-2.58c-4.1,0-7.22,3.12-7.22,7.61s3.12,7.62,7.22,7.62a7.44,7.44,0,0,0,5.06-2v-3.8h-6.47v-2.08h8.77V1466a9.67,9.67,0,0,1-7.36,3.26A9.4,9.4,0,0,1,341.7,1459.54Z"/><path class="cls-75" d="M362.49,1468.9v-18.74h12.29v2.08h-9.95v6h9.75v2.08h-9.75v6.46h9.95v2.08Z"/><path class="cls-75" d="M385,1459.54c0-5.53,3.77-9.69,9.31-9.69s9.33,4.16,9.33,9.69-3.8,9.7-9.33,9.7S385,1465.08,385,1459.54Zm16.22,0c0-4.38-2.73-7.61-6.91-7.61s-6.89,3.23-6.89,7.61,2.67,7.62,6.89,7.62S401.22,1463.9,401.22,1459.54Z"/><path class="cls-75" d="M407.26,1468.9v-18.74h12.28v2.08h-10v6h9.76v2.08h-9.76v8.54Z"/><path class="cls-75" d="M430,1468.9v-18.74H442.3v2.08h-9.94v6h9.75v2.08h-9.75v6.46h9.94v2.08Z"/><path class="cls-75" d="M459.28,1468.9l-10.93-15v15H446v-18.74h2.39l10.79,14.64v-14.64h2.34v18.74Z"/><path class="cls-75" d="M465.15,1459.54a9.36,9.36,0,0,1,9.64-9.69,8.93,8.93,0,0,1,7.28,3.48l-1.86,1.18a6.92,6.92,0,0,0-5.42-2.58c-4.1,0-7.22,3.12-7.22,7.61s3.12,7.62,7.22,7.62a7.44,7.44,0,0,0,5.06-2v-3.8h-6.47v-2.08h8.77V1466a9.67,9.67,0,0,1-7.36,3.26A9.4,9.4,0,0,1,465.15,1459.54Z"/><path class="cls-75" d="M486,1468.9v-18.74h2.33v18.74Z"/><path class="cls-75" d="M505.93,1468.9,495,1454v15h-2.33v-18.74h2.39l10.79,14.64v-14.64h2.34v18.74Z"/><path class="cls-75" d="M512.56,1468.9v-18.74h12.28v2.08h-10v6h9.75v2.08h-9.75v6.46h10v2.08Z"/><path class="cls-75" d="M528.55,1468.9v-18.74h12.28v2.08h-10v6h9.75v2.08h-9.75v6.46h10v2.08Z"/><path class="cls-75" d="M555.39,1468.9l-4.75-7.44h-3.77v7.44h-2.33v-18.74h7.53c3.43,0,5.9,2.19,5.9,5.65a5.2,5.2,0,0,1-4.89,5.45l5.06,7.64Zm.16-13.09a3.49,3.49,0,0,0-3.76-3.57h-4.92v7.16h4.92A3.52,3.52,0,0,0,555.55,1455.81Z"/><path class="cls-75" d="M561.65,1468.9v-18.74H564v18.74Z"/><path class="cls-75" d="M581.63,1468.9l-10.93-15v15h-2.33v-18.74h2.39l10.79,14.64v-14.64h2.33v18.74Z"/><path class="cls-75" d="M587.5,1459.54a9.36,9.36,0,0,1,9.64-9.69,8.91,8.91,0,0,1,7.28,3.48l-1.85,1.18a6.94,6.94,0,0,0-5.43-2.58c-4.1,0-7.22,3.12-7.22,7.61s3.12,7.62,7.22,7.62a7.41,7.41,0,0,0,5.06-2v-3.8h-6.46v-2.08h8.77V1466a9.68,9.68,0,0,1-7.37,3.26A9.4,9.4,0,0,1,587.5,1459.54Z"/><path class="cls-75" d="M627.69,1468.9c-.56-.47-1.29-1.21-2.05-2a7.41,7.41,0,0,1-5.4,2.3c-3.2,0-5.81-1.77-5.81-5.23,0-2.92,2-4.41,4.13-5.59a8.7,8.7,0,0,1-1.44-4.22,4.45,4.45,0,0,1,4.73-4.32c2.41,0,4.21,1.32,4.21,3.68,0,2.81-2.39,4-4.78,5.28.76,1,1.58,2,2.2,2.67.76.9,1.49,1.72,2.22,2.5a18.92,18.92,0,0,0,2-4.3l1.8.82a24.14,24.14,0,0,1-2.56,4.83c1.13,1.15,2.28,2.28,3.66,3.54Zm-3.31-3.26c-1.07-1.12-2.06-2.19-2.59-2.84a31.24,31.24,0,0,1-2.33-3c-1.58,1-2.78,2.1-2.78,4a3.57,3.57,0,0,0,3.79,3.63A5.43,5.43,0,0,0,624.38,1465.64Zm-4-8.15c2-1,3.71-2,3.71-3.85a2,2,0,0,0-2.22-2.13,2.62,2.62,0,0,0-2.61,2.75A6.93,6.93,0,0,0,620.41,1457.49Z"/><path class="cls-75" d="M645.54,1468.9v-16.66h-5.93v-2.08h14.22v2.08h-6v16.66Z"/><path class="cls-75" d="M656.92,1468.9v-18.74H669.2v2.08h-10v6H669v2.08h-9.75v6.46h10v2.08Z"/><path class="cls-75" d="M672.15,1459.54a9.37,9.37,0,0,1,9.64-9.69,8.32,8.32,0,0,1,7.11,3.71l-1.94,1.09a6.31,6.31,0,0,0-5.17-2.72c-4.11,0-7.23,3.12-7.23,7.61s3.12,7.62,7.23,7.62a6.37,6.37,0,0,0,5.17-2.73l2,1.07a8.44,8.44,0,0,1-7.14,3.74A9.37,9.37,0,0,1,672.15,1459.54Z"/><path class="cls-75" d="M705.2,1468.9v-8.6h-11v8.6H691.9v-18.74h2.34v8.06h11v-8.06h2.33v18.74Z"/><path class="cls-75" d="M725.18,1468.9l-10.94-15v15h-2.33v-18.74h2.39l10.79,14.64v-14.64h2.34v18.74Z"/><path class="cls-75" d="M731.05,1459.54c0-5.53,3.76-9.69,9.3-9.69s9.33,4.16,9.33,9.69-3.79,9.7-9.33,9.7S731.05,1465.08,731.05,1459.54Zm16.21,0c0-4.38-2.72-7.61-6.91-7.61s-6.88,3.23-6.88,7.61,2.67,7.62,6.88,7.62S747.26,1463.9,747.26,1459.54Z"/><path class="cls-75" d="M753,1468.9v-18.74h2.33v16.66H764v2.08Z"/><path class="cls-75" d="M765.45,1459.54c0-5.53,3.76-9.69,9.3-9.69s9.33,4.16,9.33,9.69-3.79,9.7-9.33,9.7S765.45,1465.08,765.45,1459.54Zm16.21,0c0-4.38-2.72-7.61-6.91-7.61s-6.89,3.23-6.89,7.61,2.67,7.62,6.89,7.62S781.66,1463.9,781.66,1459.54Z"/><path class="cls-75" d="M786.94,1459.54a9.36,9.36,0,0,1,9.64-9.69,8.91,8.91,0,0,1,7.28,3.48l-1.85,1.18a6.94,6.94,0,0,0-5.43-2.58c-4.1,0-7.22,3.12-7.22,7.61s3.12,7.62,7.22,7.62a7.41,7.41,0,0,0,5.06-2v-3.8h-6.46v-2.08H804V1466a9.69,9.69,0,0,1-7.37,3.26A9.4,9.4,0,0,1,786.94,1459.54Z"/><path class="cls-75" d="M812.94,1468.9V1461l-7.39-10.82h2.72l5.82,8.71,5.82-8.71h2.73L815.27,1461v7.92Z"/><path class="cls-75" d="M274.28,1498.66V1482.9l-6.35,15.76H267l-6.38-15.76v15.76h-2.34v-18.74h3.35l5.84,14.44,5.82-14.44h3.35v18.74Z"/><path class="cls-75" d="M312.56,1491.38v-11.46h2.36v11.41c0,3.43,1.83,5.59,5.28,5.59s5.31-2.16,5.31-5.59v-11.41h2.37v11.43c0,4.67-2.59,7.65-7.68,7.65S312.56,1496,312.56,1491.38Z"/><path class="cls-75" d="M369.44,1498.66l-7.56-18.74h2.67l6.32,16.18,6.32-16.18h2.67l-7.53,18.74Z"/><path class="cls-75" d="M425.73,1498.66l-1.66-4.19h-9.33l-1.66,4.19h-2.67l7.56-18.74h2.89l7.54,18.74Zm-6.33-16.35-4,10.11h7.95Z"/><path class="cls-75" d="M465.15,1498.66V1482h-5.93v-2.08h14.22V1482h-5.95v16.66Z"/><path class="cls-75" d="M512.73,1498.66V1482H506.8v-2.08H521V1482h-6v16.66Z"/><path class="cls-75" d="M555.67,1491.38v-11.46H558v11.41c0,3.43,1.83,5.59,5.28,5.59s5.32-2.16,5.32-5.59v-11.41H571v11.43c0,4.67-2.59,7.65-7.68,7.65S555.67,1496,555.67,1491.38Z"/><path class="cls-75" d="M606.93,1498.66v-18.74h7.53a5.65,5.65,0,1,1,0,11.29h-5.2v7.45Zm11-13.09a3.49,3.49,0,0,0-3.74-3.57h-4.92v7.14h4.92A3.49,3.49,0,0,0,617.92,1485.57Z"/><path class="cls-75" d="M655,1491.38v-11.46h2.36v11.41c0,3.43,1.83,5.59,5.29,5.59s5.31-2.16,5.31-5.59v-11.41h2.36v11.43c0,4.67-2.59,7.65-7.67,7.65S655,1496,655,1491.38Z"/><path class="cls-75" d="M705.4,1498.66v-1.94L715.94,1482H705.4v-2.08h13.54v1.93l-10.57,14.73h10.77v2.08Z"/><path class="cls-75" d="M767.53,1498.66v-8.6h-11v8.6h-2.33v-18.74h2.33V1488h11v-8.06h2.33v18.74Z"/><path class="cls-75" d="M819.18,1498.66l-1.66-4.19h-9.33l-1.65,4.19h-2.67l7.56-18.74h2.89l7.53,18.74Zm-6.32-16.35-4,10.11h8Z"/></g></g></svg>